<svg role="img" viewBox="0 0 24 24" xmlns="http://www.w3.org/2000/svg" id="Awslambda--Streamline-Simple-Icons.svg" height="24" width="24"><desc>Awslambda Streamline Icon: https://streamlinehq.com</desc><title>AWS Lambda</title><path d="M4.9855 0c-0.2941 0.0031 -0.5335 0.2466 -0.534 0.5482L4.446 5.456c0 0.1451 0.06 0.2835 0.159 0.3891a0.5322 0.5322 0 0 0 0.3806 0.1562h3.4282l8.197 17.6805a0.5365 0.5365 0 0 0 0.4885 0.3181h5.811c0.2969 0 0.5426 -0.2448 0.5426 -0.5482V18.544c0 -0.3035 -0.2392 -0.5482 -0.5425 -0.5482h-2.0138L12.7394 0.3153C12.647 0.124 12.4564 0 12.2452 0h-7.254Zm0.5397 1.0907h6.3678l8.16 17.6804a0.5365 0.5365 0 0 0 0.4885 0.3181h1.8178v3.8173H17.437L9.2402 5.226a0.536 0.536 0 0 0 -0.4885 -0.318H5.5223Zm2.0137 8.2366c-0.2098 0.0011 -0.3937 0.1193 -0.4857 0.3096L0.6002 23.2133a0.5506 0.5506 0 0 0 0.0313 0.5282 0.5334 0.5334 0 0 0 0.4544 0.25h6.169a0.5468 0.5468 0 0 0 0.497 -0.3096l3.38 -7.166a0.5405 0.5405 0 0 0 -0.0029 -0.4686L8.036 9.637a0.5468 0.5468 0 0 0 -0.4942 -0.3096Zm0.0057 1.8036 2.488 5.1522 -3.1214 6.6206H1.9465Z" fill="#000000" stroke-width="1"></path></svg>